<svg width="449" height="112" viewBox="0 0 449 112" fill="none" xmlns="http://www.w3.org/2000/svg">
<path d="M34.0217 66.6732H82.9307V58.1094H92.0379V30.5712H82.9307V21H21.7944V92.1814H34.0217V66.6732ZM34.0217 34.4333H79.389V53.4078H34.0217V34.4333Z" fill="white"/>
<path d="M112.794 0V112H0.794434V0H112.794ZM12.7944 100H100.794V12H12.7944V100Z" fill="white"/>
<path d="M183.635 19.274H176.959V8H132.794V104H151.624V65.395H176.959V54.8043H184.491V18.9324C184.121 18.806 183.741 19.274 183.635 19.274ZM166.346 47.2883H151.624V26.1068H166.346V47.2883Z" fill="white"/>
<path d="M242.877 19.2911C240.994 19.3389 239.094 19.2194 237.215 19.274V8H193.05V104H212.222L211.88 65.395H226.944V104H245.431V65.7367H237.215V54.8043H245.431V19.4448C245.431 18.5839 243.418 19.2774 242.877 19.2911ZM226.944 47.2883H211.849V26.1068H226.944V47.2883Z" fill="white"/>
<path d="M291.308 8.51246V47.2883H274.532V8H255.018V57.879H264.09C265.336 57.879 263.919 64.4419 264.261 65.395H274.875V104H291.993V65.395H300.552V57.879H310.138V8H291.822C291.784 8 291.308 8.47488 291.308 8.51246Z" fill="white"/>
<path d="M372.448 8V17.9075H361.15V26.1068H348.825V17.9075H337.527V8H321.436V104H340.266V40.6263C340.266 40.5238 339.831 40.3633 339.923 40.1139H348.825V65.395H361.492V40.1139H370.051V104H389.566L389.052 8H372.448Z" fill="white"/>
<path d="M403.26 8V104H448.794V8H403.26ZM430.992 87.6014H420.721V25.4235H430.992V87.6014Z" fill="white"/>
</svg>
