<svg width="171" height="65" viewBox="0 0 171 65" fill="none" xmlns="http://www.w3.org/2000/svg">
<path d="M35.4239 15.2465H32.348V10.0522H12V54.2821H20.6755V36.4957H32.348V31.6163H35.8182V15.0891C35.6478 15.0309 35.4727 15.2465 35.4239 15.2465ZM27.4583 28.1535H20.6755V18.3946H27.4583V28.1535Z" fill="white"/>
<path d="M63.9352 15.2544C63.0676 15.2764 62.1923 15.2213 61.3266 15.2465V10.0522H40.9785V54.2821H49.8116L49.654 36.4957H56.5944V54.2821H65.1119V36.6531H61.3266V31.6163H65.1119V15.3252C65.1119 14.9285 64.1844 15.2481 63.9352 15.2544ZM56.5944 28.1535H49.6397V18.3946H56.5944V28.1535Z" fill="white"/>
<path d="M86.9913 10.2884V28.1535H79.2621V10.0522H70.2715V33.0329H74.4512C75.0253 33.0329 74.3724 36.0566 74.53 36.4957H79.4202V54.2821H87.3069V36.4957H91.2503V33.0329H95.6668V10.0522H87.2281C87.2106 10.0522 86.9913 10.271 86.9913 10.2884Z" fill="white"/>
<path d="M124.331 10.0522V14.6169H119.125V18.3946H113.447V14.6169H108.242V10.0522H100.828V54.2821H109.504V25.0841C109.504 25.0369 109.303 24.9629 109.346 24.848H113.447V36.4957H119.283V24.848H123.226V54.2821H132.218L131.981 10.0522H124.331Z" fill="white"/>
<path d="M137.377 10.0522V54.2821H158.356V10.0522H137.377ZM150.154 46.7268H145.422V18.0797H150.154V46.7268Z" fill="white"/>
</svg>
