<svg width="171" height="64" viewBox="0 0 171 64" fill="none" xmlns="http://www.w3.org/2000/svg">
<path d="M35.4239 15.0795H32.348V9.88525H12V54.1151H20.6755V36.3287H32.348V31.4493H35.8182V14.9221C35.6478 14.8639 35.4727 15.0795 35.4239 15.0795ZM27.4583 27.9865H20.6755V18.2276H27.4583V27.9865Z" fill="black"/>
<path d="M63.9352 15.0874C63.0676 15.1094 62.1923 15.0543 61.3266 15.0795V9.88525H40.9785V54.1151H49.8116L49.654 36.3287H56.5944V54.1151H65.1119V36.4862H61.3266V31.4493H65.1119V15.1582C65.1119 14.7615 64.1844 15.0811 63.9352 15.0874ZM56.5944 27.9865H49.6397V18.2276H56.5944V27.9865Z" fill="black"/>
<path d="M86.9913 10.1214V27.9865H79.2621V9.88525H70.2715V32.8659H74.4512C75.0253 32.8659 74.3724 35.8896 74.53 36.3287H79.4202V54.1151H87.3069V36.3287H91.2503V32.8659H95.6668V9.88525H87.2281C87.2106 9.88525 86.9913 10.104 86.9913 10.1214Z" fill="black"/>
<path d="M124.331 9.88525V14.4499H119.125V18.2276H113.447V14.4499H108.242V9.88525H100.828V54.1151H109.504V24.9171C109.504 24.8699 109.303 24.7959 109.346 24.681H113.447V36.3287H119.283V24.681H123.226V54.1151H132.218L131.981 9.88525H124.331Z" fill="black"/>
<path d="M137.377 9.88525V54.1151H158.356V9.88525H137.377ZM150.154 46.5598H145.422V17.9127H150.154V46.5598Z" fill="black"/>
</svg>
